<svg xmlns="http://www.w3.org/2000/svg" width="42.716" height="44.805" viewBox="0 0 42.716 44.805">
    <g id="settings" transform="translate(-0.56)">
      <path id="Path_12" data-name="Path 12" d="M42.384,27.4l-.009-.007L39.5,24.753a18.8,18.8,0,0,0,0-4.7l2.879-2.645a2.832,2.832,0,0,0,.521-3.463L39.738,8.466A2.813,2.813,0,0,0,36.46,7.193L32.736,8.367a17.114,17.114,0,0,0-4.06-2.356l-.862-3.825A2.8,2.8,0,0,0,25.091,0H18.744a2.8,2.8,0,0,0-2.72,2.184l-.864,3.829A17.043,17.043,0,0,0,11.1,8.367L7.371,7.191A2.807,2.807,0,0,0,4.1,8.455l-3.177,5.5a2.829,2.829,0,0,0,.536,3.459L4.33,20.052a18.8,18.8,0,0,0,0,4.7L1.451,27.4A2.83,2.83,0,0,0,.93,30.859L4.1,36.34a2.81,2.81,0,0,0,3.278,1.273L11.1,36.439a17.114,17.114,0,0,0,4.06,2.356l.862,3.825A2.806,2.806,0,0,0,18.744,44.8h6.347a2.8,2.8,0,0,0,2.72-2.184l.864-3.829a17.051,17.051,0,0,0,4.06-2.356l3.728,1.176a2.81,2.81,0,0,0,3.269-1.266l3.177-5.5a2.828,2.828,0,0,0-.526-3.452ZM21.917,32.67A10.268,10.268,0,1,1,32.185,22.4,10.279,10.279,0,0,1,21.917,32.67Z" transform="translate(0 0)" fill="#e2494b"/>
      <path id="Path_13" data-name="Path 13" d="M16.134,20.385a1.862,1.862,0,0,1-1.32-.547l-3.267-3.267A1.859,1.859,0,0,1,11,15.251V10.117a1.867,1.867,0,0,1,3.734,0v4.361l2.72,2.72a1.867,1.867,0,0,1-1.32,3.187Z" transform="translate(9.05 7.152)" fill="#505050"/>
      <path id="Path_14" data-name="Path 14" d="M21.917,0H18.744a2.8,2.8,0,0,0-2.72,2.184l-.864,3.829A17.043,17.043,0,0,0,11.1,8.367L7.371,7.191a2.831,2.831,0,0,0-.84-.127A2.782,2.782,0,0,0,4.1,8.455l-3.177,5.5a2.829,2.829,0,0,0,.536,3.459L4.33,20.052a18.8,18.8,0,0,0,0,4.7L1.451,27.4A2.83,2.83,0,0,0,.93,30.859L4.1,36.34a2.817,2.817,0,0,0,3.278,1.273L11.1,36.439a17.114,17.114,0,0,0,4.06,2.356l.862,3.825A2.806,2.806,0,0,0,18.744,44.8h3.174V32.67a10.268,10.268,0,0,1,0-20.535Z" transform="translate(0)" fill="#c63e40"/>
      <path id="Path_15" data-name="Path 15" d="M12.867,8.25A1.865,1.865,0,0,0,11,10.117v5.134a1.859,1.859,0,0,0,.547,1.32l1.32,1.32Z" transform="translate(9.05 7.152)" fill="#546d79"/>
    </g>
  </svg>
