<svg id="Official_Logo" data-name="Official Logo" xmlns="http://www.w3.org/2000/svg" width="940" height="450" viewBox="280 525 940 450">
  <metadata><?xpacket begin="﻿" id="W5M0MpCehiHzreSzNTczkc9d"?>
<x:xmpmeta xmlns:x="adobe:ns:meta/" x:xmptk="Adobe XMP Core 5.6-c145 79.163499, 2018/08/13-16:40:22        ">
   <rdf:RDF xmlns:rdf="http://www.w3.org/1999/02/22-rdf-syntax-ns#">
      <rdf:Description rdf:about=""
            xmlns:xmp="http://ns.adobe.com/xap/1.0/">
         <xmp:CreatorTool>Adobe Photoshop CC 2019 (Windows)</xmp:CreatorTool>
      </rdf:Description>
   </rdf:RDF>
</x:xmpmeta>
                                                                                                    
                                                                                                    
                                                                                                    
                                                                                                    
                                                                                                    
                                                                                                    
                                                                                                    
                                                                                                    
                                                                                                    
                                                                                                    
                                                                                                    
                                                                                                    
                                                                                                    
                                                                                                    
                                                                                                    
                                                                                                    
                                                                                                    
                                                                                                    
                                                                                                    
                                                                                                    
                           
<?xpacket end="w"?></metadata>
<defs>
    <style>
      .cls-1 {
        fill: #656565;
      }

      .cls-1, .cls-2, .cls-3, .cls-4, .cls-5 {
        fill-rule: evenodd;
      }

      .cls-2 {
        fill: #989898;
      }

      .cls-3 {
        fill: #c63e40;
      }

      .cls-4 {
        fill: #ad5051;
      }

      .cls-5 {
        fill: #9b9b9b;
      }
    </style>
  </defs>
  <path id="PRESS" class="cls-1" d="M646.31,681.136v94.442h23.472V751.551H682.42c25.833,0,41.944-13.75,41.944-35.833,0-21.249-15.417-34.582-40-34.582H646.31ZM669.782,731V701.83h14.027c10.416,0,17.083,5.416,17.083,13.888,0,9.306-6.667,15.278-17.083,15.278H669.782Zm102.361,17.221,20.277,27.361h28.333l-24.305-31.944c11.25-5.694,18.055-16.11,18.055-29.305,0-20.416-15.694-33.193-39.027-33.193H734.088v94.442H757.56V748.217h14.583Zm-14.583-21.11V701.83h17.361c9.027,0,16.249,4.861,16.249,12.5,0,7.778-7.222,12.778-16.249,12.778H757.56Zm95.416-25.555h47.916V681.136H829.5v94.442h71.388V755.162H852.976V738.773h41.8v-20h-41.8V701.552Zm97.777-22.5c-22.222,0-37.5,11.944-37.5,30.832,0,15,8.75,23.75,27.361,27.777l15.555,3.472c8.055,1.528,10,4.861,10,8.056,0,5.138-4.583,8.333-13.333,8.333-11.111,0-18.333-5-19.861-13.333H909.5c2.222,23.333,21.388,33.332,42.637,33.332,23.611,0,39.166-11.805,39.166-30.693,0-16.25-11.25-23.194-28.471-26.944l-13.2-3.056c-7.083-1.527-10.833-3.75-10.833-8.888,0-6.111,5.417-9.445,13.472-9.445,9.583,0,14.028,4.861,15.278,11.945h23.61C988.807,685.025,966.03,679.053,950.753,679.053Zm89.717,0c-22.22,0-37.49,11.944-37.49,30.832,0,15,8.74,23.75,27.36,27.777l15.55,3.472c8.06,1.528,10,4.861,10,8.056,0,5.138-4.58,8.333-13.33,8.333-11.11,0-18.34-5-19.86-13.333H999.225c2.225,23.333,21.385,33.332,42.635,33.332,23.61,0,39.17-11.805,39.17-30.693,0-16.25-11.25-23.194-28.47-26.944l-13.2-3.056c-7.08-1.527-10.83-3.75-10.83-8.888,0-6.111,5.42-9.445,13.47-9.445,9.59,0,14.03,4.861,15.28,11.945h23.61C1078.53,685.025,1055.75,679.053,1040.47,679.053Z"/>
  <path id="E" class="cls-2" d="M442.818,701.579h47.915V681.163H419.346v94.442h71.387V755.189H442.818V738.8h41.805v-20H442.818V701.579Z"/>
  <path id="X_copy" data-name="X copy" class="cls-3" d="M603.7,730.093L571.673,769.5s-19.112,24.357-33.528,43.4c-7.6,10.046-17.165,21.957-34.376,21.957H462.031l70.991-104.766L462.97,622.2h40.535c23.509,0,29.466,10.355,36.635,21.448,12.337,19.09,31.221,44.226,31.221,44.226"/>
  <path class="cls-4" d="M674,622H631s-20.412.149-29,13-29,45-29,45l34,44Z"/>
  <path class="cls-4" d="M675,835H630s-17.268-4.087-27-17-29-42-29-42l34-40Z"/>
  <path id="D_A_S_M_A_R_I_Ñ_A_S_copy" data-name="D A S M A R I Ñ A S copy" class="cls-5" d="M736.135,809.937a12.174,12.174,0,0,1-2.869,4.182,13.575,13.575,0,0,1-4.425,2.775,15.264,15.264,0,0,1-5.644,1.012h-9.112v-26.25H723.2a15.531,15.531,0,0,1,5.644.994,13.318,13.318,0,0,1,4.425,2.756,12.222,12.222,0,0,1,2.869,4.163A13.784,13.784,0,0,1,736.135,809.937Zm-2.831-9.206a9.832,9.832,0,0,0-2.175-3.319A10.048,10.048,0,0,0,727.7,795.2a12.077,12.077,0,0,0-4.5-.806h-6.15v20.775h6.15a12.322,12.322,0,0,0,4.5-.788,9.807,9.807,0,0,0,3.432-2.194,9.912,9.912,0,0,0,2.175-3.281,10.679,10.679,0,0,0,.768-4.087A10.868,10.868,0,0,0,733.3,800.731Zm46.231,17.175h-3.188l-3.075-6.937H758.985l-3.113,6.937h-3.037L764.8,791.469h2.775Zm-13.388-22.95-6,13.388H772.11Zm32.525,4.922a3.349,3.349,0,0,0,1.088,1.371,7.952,7.952,0,0,0,2.175,1.127,25.989,25.989,0,0,0,3.562.957,15.464,15.464,0,0,1,6.469,2.7,5.862,5.862,0,0,1,2.081,4.77,7.032,7.032,0,0,1-.666,3.08,6.962,6.962,0,0,1-1.838,2.366,8.252,8.252,0,0,1-2.821,1.5,11.818,11.818,0,0,1-3.6.526,15.71,15.71,0,0,1-5.756-1.017,16.258,16.258,0,0,1-4.969-3.145l1.838-2.175a15.466,15.466,0,0,0,4.162,2.793,11.964,11.964,0,0,0,4.838.919,6.751,6.751,0,0,0,4.256-1.239,3.941,3.941,0,0,0,1.594-3.268,4.36,4.36,0,0,0-.3-1.671,3.352,3.352,0,0,0-1.053-1.333,7.435,7.435,0,0,0-2.086-1.089,26.652,26.652,0,0,0-3.4-.94,27.19,27.19,0,0,1-3.929-1.126,9.788,9.788,0,0,1-2.763-1.54,5.67,5.67,0,0,1-1.616-2.1,7.081,7.081,0,0,1-.526-2.855,6.535,6.535,0,0,1,.637-2.891,6.717,6.717,0,0,1,1.8-2.273,8.771,8.771,0,0,1,2.738-1.5,10.5,10.5,0,0,1,3.45-.545,14.588,14.588,0,0,1,5.044.8,15.3,15.3,0,0,1,4.181,2.393l-1.725,2.287a12.809,12.809,0,0,0-3.694-2.175,11.265,11.265,0,0,0-3.881-.675,7.386,7.386,0,0,0-2.306.338,5.852,5.852,0,0,0-1.763.9,3.887,3.887,0,0,0-1.125,1.352,3.738,3.738,0,0,0-.394,1.689A4.521,4.521,0,0,0,798.672,799.878Zm45.013,10.828h-0.15l-9.563-14.025v21.225h-2.887v-26.25h3l9.562,14.325,9.563-14.325h3v26.25h-2.963V796.644Zm55.85,7.2h-3.188l-3.075-6.937H878.985l-3.113,6.937h-3.037L884.8,791.469h2.775Zm-13.388-22.95-6,13.388H892.11Zm48.013,22.95-7.613-10.2h-7.5v10.2h-2.962v-26.25h11.287a12.731,12.731,0,0,1,3.919.563,8.838,8.838,0,0,1,2.981,1.594,7.11,7.11,0,0,1,1.913,2.477,7.484,7.484,0,0,1,.675,3.208,7.783,7.783,0,0,1-.525,2.945,6.727,6.727,0,0,1-1.481,2.251,8.334,8.334,0,0,1-2.269,1.6,10.55,10.55,0,0,1-2.85.9l8.062,10.717H934.16Zm-2.03-22.139a7.92,7.92,0,0,0-4.962-1.373h-8.121v10.687h8.083a9.284,9.284,0,0,0,2.707-.376,6.622,6.622,0,0,0,2.143-1.073,4.919,4.919,0,0,0,1.41-1.712,5.072,5.072,0,0,0,.507-2.3A4.6,4.6,0,0,0,932.13,795.767Zm25.18-4.111v26.25h-2.963v-26.25h2.963Zm38.087,0h2.888v26.25h-2.363l-16.95-21.525v21.525h-2.887v-26.25h2.775L995.4,812.694V791.656Zm-3.45-3.225a2.81,2.81,0,0,1-2.175.9,4.239,4.239,0,0,1-1.312-.219q-0.675-.22-1.35-0.494t-1.275-.512a3,3,0,0,0-1.088-.237,1.521,1.521,0,0,0-1.143.4,4.581,4.581,0,0,0-.807,1.4l-1.762-.488a7.33,7.33,0,0,1,1.387-3.037,2.81,2.81,0,0,1,2.175-.9,3.953,3.953,0,0,1,1.313.237q0.675,0.238,1.35.512t1.275,0.494a3.2,3.2,0,0,0,1.087.219,1.523,1.523,0,0,0,1.144-.4,4.57,4.57,0,0,0,.806-1.4l1.763,0.488A7.329,7.329,0,0,1,991.947,788.431Zm49.583,29.475h-3.18l-3.08-6.937h-14.29l-3.11,6.937h-3.04l11.97-26.437h2.77Zm-13.38-22.95-6,13.388h11.96Zm32.52,4.922a3.314,3.314,0,0,0,1.09,1.371,7.914,7.914,0,0,0,2.17,1.127,26.343,26.343,0,0,0,3.57.957,15.517,15.517,0,0,1,6.47,2.7,5.885,5.885,0,0,1,2.08,4.77,7.091,7.091,0,0,1-.67,3.08,6.931,6.931,0,0,1-1.84,2.366,8.247,8.247,0,0,1-2.82,1.5,11.818,11.818,0,0,1-3.6.526,15.647,15.647,0,0,1-5.75-1.017,16.18,16.18,0,0,1-4.97-3.145l1.83-2.175a15.577,15.577,0,0,0,4.17,2.793,11.941,11.941,0,0,0,4.83.919,6.748,6.748,0,0,0,4.26-1.239,3.943,3.943,0,0,0,1.59-3.268,4.379,4.379,0,0,0-.3-1.671,3.361,3.361,0,0,0-1.05-1.333,7.52,7.52,0,0,0-2.08-1.089,26.792,26.792,0,0,0-3.41-.94,27.01,27.01,0,0,1-3.92-1.126,9.806,9.806,0,0,1-2.77-1.54,5.705,5.705,0,0,1-1.61-2.1,7.1,7.1,0,0,1-.53-2.855,6.469,6.469,0,0,1,.64-2.891,6.6,6.6,0,0,1,1.8-2.273,8.673,8.673,0,0,1,2.73-1.5,10.5,10.5,0,0,1,3.45-.545,14.612,14.612,0,0,1,5.05.8,15.249,15.249,0,0,1,4.18,2.393l-1.73,2.287a12.7,12.7,0,0,0-3.69-2.175,11.272,11.272,0,0,0-3.88-.675,7.426,7.426,0,0,0-2.31.338,5.955,5.955,0,0,0-1.76.9,3.808,3.808,0,0,0-1.12,1.352,3.642,3.642,0,0,0-.4,1.689A4.521,4.521,0,0,0,1060.67,799.878Z"/>
</svg>
